<?xml version="1.0" standalone="no"?>
<svg width="600" height="250" version="1.1" xmlns="http://www.w3.org/2000/svg">
  <!--矩形-->
  <rect x="10" y="10" width="30" height="60" stroke="#9B7B56" fill="transparent" stroke-width="10"/>
  <!--圆角矩形-->
  <rect x="60" y="10" rx="10" ry="10" width="60" height="40" stroke="#FF9090" fill="transparent" stroke-width="5"/> 
  <!--圆形-->
  <circle cx="180" cy="50" r="40" stroke="green" fill="#C3413D" stroke-width="5"/>  
   <!--椭圆-->
  <ellipse cx="320" cy="28" rx="80" ry="20" stroke="#FFC302" fill="transparent" stroke-width="5"/> 
  <!--直线-->
  <line x1="10" x2="50" y1="110" y2="150" stroke="orange" fill="transparent" stroke-width="5"/>
  <!--折线-->
  <polyline points="60 110 65 120 70 115 75 130 80 125 85 140 90 135 95 150 100 145" 
            stroke="#9B7B56" fill="transparent" stroke-width="5"/>
  <!--多边形-->
  <polygon points="50 160 55 180 70 180 60 190 65 205 50 195 35 205 40 190 30 180 45 180" 
           stroke="#FFC302" fill="transparent" stroke-width="5"/>
  <!--路径 -->
  <path d="M20,230 Q40,205 50,230 T90,230" fill="none" stroke="#9B7B56" stroke-width="5"/>
  <path d="M 20 230 Q 40 205, 50 230 T 90230"/>
  <path d="M 20 230 Q 40 205"/>

  <path d="M0 0 L 36 0 L36 3 L 0 3 L 0 0"/>

  <path fill="#3CABFF" fill-rule="evenodd" d="M0 9.375A9.374 9.374 0 0 1 9.375 0h41.25A9.374 9.374 0 0 1 60 9.375v41.25A9.374 9.374 0 0 1 50.625 60H9.375A9.374 9.374 0 0 1 0 50.625V9.375zm35.94 30.204c-5.601 3.147-12.645 1.256-15.834-4.217-3.206-5.501-1.303-12.537 4.25-15.713 4.7-2.689 10.51-1.749 14.127 1.941L27.526 27.89a2.81 2.81 0 0 0-1.037 3.854 2.862 2.862 0 0 0 3.887 1.035l15.988-9.166a17.238 17.238 0 0 0-1.222-2.571c-4.777-8.198-15.358-11.007-23.632-6.275-8.275 4.734-11.11 15.217-6.332 23.415 4.77 8.184 15.322 10.997 23.59 6.297.877-.5 1.654-1.037 2.376-1.623l-1.31-2.248a2.868 2.868 0 0 0-3.893-1.028zm10.824-7.39l-1.418-2.425-4.911 2.798 2.835 4.846 2.454-1.399h.002a2.779 2.779 0 0 0 1.038-3.82z"/>


</svg>