<?xml version="1.0" encoding="UTF-8"?>
<!DOCTYPE svg PUBLIC "-//W3C//DTD SVG 1.1//EN" "http://www.w3.org/Graphics/SVG/1.1/DTD/svg11.dtd">
<svg version="1.1" xmlns="http://www.w3.org/2000/svg" xmlns:xlink="http://www.w3.org/1999/xlink" x="0" y="0" width="420" height="140" viewBox="0, 0, 420, 140">
  <g id="Background">
    <rect x="0" y="0" width="420" height="140" fill="#000000" fill-opacity="0"/>
  </g>
  <g id="logo">
    <g id="Group">
      <path d="M135,70 C135,103.137 108.137,130 75,130 C41.863,130 15,103.137 15,70 C15,36.863 41.863,10 75,10 C108.137,10 135,36.863 135,70 z" fill="#272424" id="Oval"/>
      <g>
        <path d="M125,70 C125,59.1 102.6,49.2 75,49.2 C47.4,49.2 25,59.1 25,70 C25,80.9 47.4,90.8 75,90.8 C102.6,90.8 125,80.9 125,70 z M120.5,70 C120.5,77.2 100.1,86.3 75,86.3 C49.9,86.3 29.5,77.2 29.5,70 C29.5,62.8 49.9,53.7 75,53.7 C100.1,53.7 120.5,62.8 120.5,70 z" fill="#FFFFFF" id="Shape"/>
        <path d="M75,36.5 C73.9,37.5 72.8,38.6 71.7,39.7 C66.6,45.1 61.4,51.8 57,59.6 C43.2,83.5 40.6,107.9 50,113.3 C55.7,116.6 65.3,112.6 75,103.6 C84.7,112.6 94.3,116.6 100,113.3 C109.4,107.9 106.8,83.5 93,59.6 C88.5,51.8 83.4,45.1 78.2,39.7 C77.2,38.5 76.1,37.5 75,36.5 z M75,42.9 C79.9,48 84.8,54.4 89.1,61.9 C101.7,83.6 104,105.8 97.7,109.4 C94.1,111.5 86.4,108 78.2,100.4 C77.1,99.4 76,98.3 74.9,97.2 C73.8,98.3 72.7,99.4 71.6,100.4 C63.4,108 55.8,111.6 52.1,109.4 C45.8,105.8 48.2,83.6 60.7,61.9 C65.2,54.4 70.1,48 75,42.9 z" fill="#888B8C" id="Shape"/>
        <path d="M75,103.5 C76.1,102.5 77.2,101.4 78.3,100.3 C83.5,94.9 88.6,88.1 93.1,80.4 C106.9,56.5 109.5,32.1 100.1,26.7 C94.4,23.4 84.8,27.4 75.1,36.4 C65.4,27.4 55.8,23.4 50.1,26.7 C40.7,32.1 43.3,56.5 57.1,80.4 C61.6,88.2 66.7,94.9 71.9,100.3 C72.8,101.5 73.9,102.5 75,103.5 z M75,97.1 C70.1,92 65.2,85.6 60.9,78.1 C48.3,56.4 46,34.2 52.3,30.6 C55.9,28.5 63.6,32 71.8,39.6 C72.9,40.6 74,41.7 75.1,42.8 C76.2,41.7 77.3,40.6 78.4,39.6 C86.6,32 94.2,28.4 97.9,30.6 C104.2,34.2 101.8,56.4 89.3,78.1 C84.8,85.6 79.9,92 75,97.1 z" fill="#F94949" id="Shape"/>
        <path d="M75,86.3 C49.9,86.3 29.5,77.2 29.5,70 L25,70 C25,80.4 45.5,90 71.4,90.8" fill="#FFFFFF" id="Shape"/>
        <path d="M75,53.7 C100.1,53.7 120.5,62.8 120.5,70 L125,70 C125,59.1 102.6,49.2 75,49.2 L75,53.7 z" fill="#FFFFFF" id="Shape"/>
        <path d="M84.3,70 C84.3,75.136 80.136,79.3 75,79.3 C69.864,79.3 65.7,75.136 65.7,70 C65.7,64.864 69.864,60.7 75,60.7 C80.136,60.7 84.3,64.864 84.3,70 z" fill="#FFFFFF" id="Oval"/>
        <path d="M100,113.3 C109.4,107.9 106.8,83.5 93,59.6 C88.5,51.8 84.8,54.4 89.1,61.9 C101.7,83.6 104,105.8 97.7,109.4 L100,113.3 z" fill="#888B8C" id="Shape"/>
      </g>
    </g>
    <path d="M155.203,27.094 C155.203,26.497 155.61,26 156.322,26 L172.593,26 C179.407,26 185,31.372 185,37.939 C185,43.112 181.542,47.291 176.559,49.181 L184.39,63.309 C184.797,64.005 184.39,64.901 183.373,64.901 L177.373,64.901 C176.864,64.901 176.559,64.602 176.458,64.403 L168.831,49.679 L162.525,49.679 L162.525,63.906 C162.525,64.503 162.017,65 161.407,65 L156.119,65 C155.508,65 155,64.503 155,63.906 L155,27.094 L155.203,27.094 z M171.983,43.809 C175.034,43.809 177.576,41.222 177.576,38.138 C177.576,35.153 174.932,32.765 171.983,32.765 L162.729,32.765 L162.729,43.908 L171.983,43.908 L171.983,43.809 z" fill="#272424" id="Shape"/>
    <path d="M191,27.114 C191,26.506 191.4,26 192.1,26 L214.9,26 C215.5,26 216,26.506 216,27.114 L216,31.772 C216,32.38 215.6,32.886 214.9,32.886 L198.3,32.886 L198.3,42.203 L212.1,42.203 C212.7,42.203 213.2,42.709 213.2,43.316 L213.2,48.076 C213.2,48.684 212.7,49.19 212.1,49.19 L198.3,49.19 L198.3,59.114 L214.9,59.114 C215.5,59.114 216,59.62 216,60.228 L216,64.886 C216,65.494 215.6,66 214.9,66 L192.1,66 C191.5,66 191,65.494 191,64.886 L191,27.114 z" fill="#272424" id="Shape"/>
    <path d="M219.138,64.492 L236.381,26.603 C236.579,26.302 236.777,26 237.372,26 L237.966,26 C238.561,26 238.759,26.302 238.957,26.603 L255.902,64.492 C256.2,65.196 255.803,66 254.911,66 L250.056,66 C249.263,66 248.867,65.698 248.47,64.894 L245.795,58.764 L229.246,58.764 L226.57,64.894 C226.372,65.497 225.877,66 224.985,66 L220.129,66 C219.237,65.899 218.742,65.196 219.138,64.492 z M243.119,52.432 L237.57,40.07 L237.372,40.07 L231.921,52.432 L243.119,52.432 z" fill="#272424" id="Shape"/>
    <path d="M275.911,26 C281.584,26 285.566,27.787 289.448,31.161 C289.946,31.558 289.946,32.253 289.547,32.749 L286.163,36.223 C285.765,36.62 285.168,36.62 284.77,36.223 C282.381,34.139 279.295,32.948 276.209,32.948 C269.043,32.948 263.767,38.903 263.767,45.95 C263.767,52.898 269.142,58.754 276.309,58.754 C279.693,58.754 282.48,57.464 284.869,55.578 C285.267,55.181 285.964,55.28 286.263,55.578 L289.747,59.151 C290.145,59.548 290.045,60.243 289.647,60.64 C285.865,64.313 281.087,66 276.11,66 C264.962,66 256.003,57.166 256.003,46.05 C255.804,35.032 264.763,26 275.911,26 z" fill="#272424" id="Shape"/>
    <path d="M302.809,32.748 L294.112,32.748 C293.506,32.748 293,32.252 293,31.656 L293,27.092 C293,26.496 293.404,26 294.112,26 L318.888,26 C319.494,26 320,26.496 320,27.092 L320,31.656 C320,32.252 319.596,32.748 318.888,32.748 L310.191,32.748 L310.191,63.908 C310.191,64.504 309.685,65 309.079,65 L303.82,65 C303.213,65 302.708,64.504 302.708,63.908 L302.708,32.748 L302.809,32.748 z" fill="#272424" id="Shape"/>
    <path d="M164.809,81.748 L156.112,81.748 C155.506,81.748 155,81.252 155,80.656 L155,76.092 C155,75.496 155.404,75 156.112,75 L180.888,75 C181.494,75 182,75.496 182,76.092 L182,80.656 C182,81.252 181.596,81.748 180.888,81.748 L172.292,81.748 L172.292,112.908 C172.292,113.504 171.787,114 171.18,114 L165.921,114 C165.315,114 164.809,113.504 164.809,112.908 L164.809,81.748 z" fill="#272424" id="Shape"/>
    <path d="M186.203,76.094 C186.203,75.497 186.61,75 187.322,75 L203.593,75 C210.407,75 216,80.372 216,86.939 C216,92.112 212.542,96.291 207.559,98.181 L215.39,112.309 C215.797,113.005 215.39,113.901 214.373,113.901 L208.373,113.901 C207.864,113.901 207.559,113.602 207.458,113.403 L199.831,98.679 L193.525,98.679 L193.525,112.906 C193.525,113.503 193.017,114 192.407,114 L187.119,114 C186.508,114 186,113.503 186,112.906 L186,76.094 L186.203,76.094 z M202.983,92.809 C206.034,92.809 208.576,90.222 208.576,87.138 C208.576,84.153 205.932,81.765 202.983,81.765 L193.729,81.765 L193.729,92.908 L202.983,92.908 L202.983,92.809 z" fill="#272424" id="Shape"/>
    <path d="M219.141,112.492 L236.755,74.603 C236.958,74.302 237.16,74 237.768,74 L238.375,74 C238.982,74 239.185,74.302 239.387,74.603 L256.9,112.492 C257.204,113.196 256.799,114 255.888,114 L250.928,114 C250.118,114 249.713,113.698 249.308,112.894 L246.575,106.764 L229.467,106.764 L226.733,112.894 C226.531,113.497 226.025,114 225.114,114 L220.153,114 C219.242,114 218.736,113.296 219.141,112.492 z M243.639,100.533 L237.97,88.171 L237.768,88.171 L232.2,100.533 L243.639,100.533 z" fill="#272424" id="Shape"/>
    <path d="M260,76.092 C260,75.496 260.473,75 261.041,75 L265.959,75 C266.527,75 267,75.496 267,76.092 L267,112.908 C267,113.504 266.527,114 265.959,114 L261.041,114 C260.473,114 260,113.504 260,112.908 L260,76.092 z" fill="#272424" id="Shape"/>
    <path d="M276,74.993 C276,74.397 276.495,74 277.09,74 L277.883,74 C278.279,74 278.577,74.099 278.874,74.397 L301.568,98.615 L301.667,98.615 L301.667,75.588 C301.667,74.993 302.063,74.496 302.757,74.496 L307.91,74.496 C308.505,74.496 309,74.993 309,75.588 L309,113.007 C309,113.603 308.505,114 307.91,114 L307.117,114 C306.721,114 306.423,113.901 306.126,113.603 L283.333,88.491 L283.234,88.491 L283.234,112.412 C283.234,113.007 282.838,113.504 282.144,113.504 L277.09,113.504 C276.495,113.504 276,113.007 276,112.412 L276,74.993 z" fill="#272424" id="Shape"/>
    <path d="M317,76.092 C317,75.496 317.473,75 318.041,75 L322.959,75 C323.527,75 324,75.496 324,76.092 L324,112.908 C324,113.504 323.527,114 322.959,114 L318.041,114 C317.473,114 317,113.504 317,112.908 L317,76.092 z" fill="#272424" id="Shape"/>
    <path d="M333,74.993 C333,74.397 333.495,74 334.09,74 L334.883,74 C335.279,74 335.577,74.099 335.874,74.397 L358.568,98.615 L358.667,98.615 L358.667,75.588 C358.667,74.993 359.063,74.496 359.757,74.496 L364.91,74.496 C365.505,74.496 366,74.993 366,75.588 L366,113.007 C366,113.603 365.505,114 364.91,114 L364.117,114 C363.721,114 363.423,113.901 363.126,113.603 L340.333,88.491 L340.234,88.491 L340.234,112.412 C340.234,113.007 339.838,113.504 339.144,113.504 L334.09,113.504 C333.495,113.504 333,113.007 333,112.412 L333,74.993 z" fill="#272424" id="Shape"/>
    <path d="M391.767,74 C396.709,74 401.552,75.99 405.308,79.174 C405.703,79.572 405.802,80.269 405.407,80.766 L401.948,84.348 C401.552,84.746 400.959,84.746 400.465,84.348 C398.093,82.259 395.128,81.164 392.064,81.164 C385.145,81.164 379.61,87.134 379.61,94.1 C379.61,100.965 385.047,106.836 392.064,106.836 C395.128,106.836 397.5,105.841 398.686,105.443 L398.686,100.667 L394.337,100.667 C393.744,100.667 393.25,100.269 393.25,99.672 L393.25,95.294 C393.25,94.697 393.645,94.199 394.337,94.199 L405.012,94.199 C405.605,94.199 406,94.697 406,95.294 L406,109.522 C406,109.92 405.802,110.219 405.605,110.418 C405.605,110.418 399.872,114 391.866,114 C380.797,114 372,105.144 372,94 C372,82.856 380.797,74 391.767,74 z" fill="#272424" id="Shape"/>
  </g>
</svg>
